<svg width="31" height="31" viewBox="0 0 31 31" fill="none" xmlns="http://www.w3.org/2000/svg">
<g clip-path="url(#clip0_961_2599)">
<path d="M28.2867 11.8595V9.35266H25.7798V11.8595H23.2729V14.3664H25.7798V16.8733H28.2867V14.3664H30.7936V11.8595H28.2867Z" fill="white"/>
<path d="M10.7389 15.6199C13.509 15.6199 15.7526 13.3762 15.7526 10.6061C15.7526 7.83601 13.509 5.59235 10.7389 5.59235C7.96876 5.59235 5.7251 7.83601 5.7251 10.6061C5.7251 13.3762 7.96876 15.6199 10.7389 15.6199Z" fill="white"/>
<path d="M10.7385 16.8733C7.39179 16.8733 0.710938 18.5529 0.710938 21.8871V25.6474H20.766V21.8871C20.766 18.5529 14.0852 16.8733 10.7385 16.8733Z" fill="white"/>
<path d="M16.3911 5.65491C17.5443 6.98356 18.2587 8.71331 18.2587 10.606C18.2587 12.4987 17.5443 14.2285 16.3911 15.5571C18.8479 15.2438 20.7656 13.163 20.7656 10.606C20.7656 8.04898 18.8479 5.96827 16.3911 5.65491Z" fill="white"/>
<path d="M21.4302 17.9136C22.5457 18.954 23.2727 20.2576 23.2727 21.8871V25.6474H25.7796V21.8871C25.7796 20.0696 23.7866 18.7409 21.4302 17.9136Z" fill="white"/>
</g>
<defs>
<clipPath id="clip0_961_2599">
<rect width="30.0826" height="30.0826" fill="white" transform="translate(0.710938 0.578491)"/>
</clipPath>
</defs>
</svg>
