<svg width="28" height="34" viewBox="0 0 28 34" fill="none" xmlns="http://www.w3.org/2000/svg">
<path d="M0.666504 28.6667V25.8888H3.99984V13.5555C3.99984 11.2316 4.6897 9.15518 6.06942 7.32629C7.44887 5.49768 9.259 4.33337 11.4998 3.83337V2.83337C11.4998 2.13893 11.7429 1.54865 12.229 1.06254C12.7151 0.57643 13.3054 0.333374 13.9998 0.333374C14.6943 0.333374 15.2846 0.57643 15.7707 1.06254C16.2568 1.54865 16.4998 2.13893 16.4998 2.83337V3.83337C18.7407 4.33337 20.5508 5.49768 21.9303 7.32629C23.31 9.15518 23.9998 11.2316 23.9998 13.5555V25.8888H27.3332V28.6667H0.666504ZM13.9998 33.6667C13.0832 33.6667 12.2984 33.3403 11.6457 32.6875C10.9929 32.0348 10.6665 31.25 10.6665 30.3334H17.3332C17.3332 31.25 17.0068 32.0348 16.354 32.6875C15.7012 33.3403 14.9165 33.6667 13.9998 33.6667ZM6.77775 25.8888H21.2219V13.5555C21.2219 11.5555 20.5183 9.85185 19.1111 8.44462C17.7036 7.03712 15.9998 6.33337 13.9998 6.33337C11.9998 6.33337 10.2961 7.03712 8.88859 8.44462C7.48136 9.85185 6.77775 11.5555 6.77775 13.5555V25.8888Z" fill="white"/>
</svg>
