<svg width="32" height="34" viewBox="0 0 32 34" fill="none" xmlns="http://www.w3.org/2000/svg">
<path d="M0.444824 13.5C0.444824 10.9075 1.02121 8.53018 2.17399 6.36796C3.32677 4.20601 4.87066 2.4074 6.80566 0.972125L8.45857 3.19462C6.86607 4.37962 5.59524 5.86101 4.64607 7.63879C3.69691 9.41657 3.22232 11.3703 3.22232 13.5H0.444824ZM28.7782 13.5C28.7782 11.3703 28.3036 9.41657 27.3544 7.63879C26.4052 5.86101 25.1344 4.37962 23.5419 3.19462L25.1948 0.972125C27.1298 2.4074 28.6737 4.20601 29.8265 6.36796C30.9793 8.53018 31.5557 10.9075 31.5557 13.5H28.7782ZM2.66691 28.6667V25.8888H6.00024V13.5555C6.00024 11.2316 6.6901 9.15518 8.06983 7.32629C9.44927 5.49768 11.2594 4.33337 13.5002 3.83337V2.83337C13.5002 2.13893 13.7433 1.54865 14.2294 1.06254C14.7155 0.57643 15.3058 0.333374 16.0002 0.333374C16.6947 0.333374 17.285 0.57643 17.7711 1.06254C18.2572 1.54865 18.5002 2.13893 18.5002 2.83337V3.83337C20.7411 4.33337 22.5512 5.49768 23.9307 7.32629C25.3104 9.15518 26.0002 11.2316 26.0002 13.5555V25.8888H29.3336V28.6667H2.66691ZM16.0002 33.6667C15.0836 33.6667 14.2989 33.3403 13.6461 32.6875C12.9933 32.0348 12.6669 31.25 12.6669 30.3334H19.3336C19.3336 31.25 19.0072 32.0348 18.3544 32.6875C17.7016 33.3403 16.9169 33.6667 16.0002 33.6667ZM8.77816 25.8888H23.2223V13.5555C23.2223 11.5555 22.5187 9.85185 21.1115 8.44462C19.704 7.03712 18.0002 6.33337 16.0002 6.33337C14.0002 6.33337 12.2965 7.03712 10.889 8.44462C9.48177 9.85185 8.77816 11.5555 8.77816 13.5555V25.8888Z" fill="#74C410"/>
</svg>
