<svg width="25" height="25" viewBox="0 0 25 25" fill="none" xmlns="http://www.w3.org/2000/svg">
<path fill-rule="evenodd" clip-rule="evenodd" d="M18.9147 17.7129L19.6786 16.949L19.2308 16.5003C19.1708 16.4404 19.1327 16.3621 19.1226 16.278C19.1126 16.1938 19.1311 16.1087 19.1752 16.0364C19.2669 15.8864 19.3473 15.7297 19.4155 15.5677C19.4178 15.5616 19.4203 15.5552 19.4228 15.5491C19.4888 15.39 19.543 15.2263 19.585 15.0593C19.5993 14.9704 19.6449 14.8895 19.7134 14.8311C19.782 14.7727 19.8691 14.7406 19.9592 14.7407H20.5923V13.6603H19.96V13.6589C19.8753 13.6589 19.7931 13.6305 19.7265 13.5781C19.66 13.5258 19.6129 13.4525 19.5931 13.3702C19.5517 13.1997 19.4976 13.0326 19.4314 12.8702C19.4286 12.8643 19.4261 12.8585 19.4236 12.8524C19.357 12.6917 19.2787 12.5362 19.1891 12.3871C19.1376 12.3141 19.1136 12.2252 19.1212 12.1362C19.1288 12.0472 19.1676 11.9638 19.2308 11.9006L19.6786 11.4528L18.9147 10.6885L18.4666 11.1358C18.4067 11.1958 18.3284 11.2338 18.2442 11.2439C18.1601 11.254 18.075 11.2355 18.0026 11.1914C17.6998 11.0058 17.3705 10.8675 17.0259 10.7813C16.937 10.7671 16.856 10.7217 16.7975 10.6531C16.7391 10.5846 16.707 10.4975 16.707 10.4074V9.77398H15.6261V10.4074C15.6259 10.4921 15.5974 10.5742 15.545 10.6408C15.4926 10.7073 15.4194 10.7544 15.3372 10.7744C15.1602 10.8173 14.9868 10.8738 14.8185 10.9436H14.8171C14.657 11.0101 14.502 11.0885 14.3535 11.178C14.2805 11.2296 14.1916 11.2537 14.1026 11.2461C14.0135 11.2386 13.93 11.1998 13.8668 11.1366L13.419 10.6885L12.655 11.4528L13.1028 11.9006C13.1628 11.9606 13.2008 12.0389 13.2109 12.1231C13.221 12.2073 13.2025 12.2924 13.1584 12.3648C13.0661 12.5147 12.9852 12.6713 12.9164 12.8332C12.9142 12.8393 12.9117 12.8457 12.9092 12.8518C12.8431 13.0109 12.7888 13.1746 12.7467 13.3416C12.7324 13.4305 12.687 13.5115 12.6184 13.5699C12.5499 13.6284 12.4628 13.6605 12.3728 13.6605H11.7394V14.7409H12.3728C12.4575 14.7409 12.5397 14.7694 12.6063 14.8218C12.6729 14.8742 12.7199 14.9475 12.7397 15.0299C12.7809 15.2004 12.8348 15.3675 12.9011 15.5299C12.9039 15.5358 12.9067 15.5419 12.9092 15.5477C12.9756 15.7084 13.0539 15.8639 13.1434 16.013C13.195 16.0859 13.2192 16.1748 13.2116 16.2638C13.2041 16.3529 13.1652 16.4363 13.102 16.4995L13.0464 16.555L13.0423 16.5592L12.6556 16.9462L13.4195 17.7102L13.8673 17.2621C13.9273 17.2021 14.0056 17.1641 14.0898 17.154C14.174 17.1439 14.2591 17.1624 14.3315 17.2065C14.6343 17.3922 14.9637 17.5305 15.3083 17.6165C15.3972 17.6308 15.4782 17.6763 15.5367 17.7449C15.5951 17.8135 15.6272 17.9006 15.6272 17.9908V18.6239H16.7075V17.9944C16.7076 17.9096 16.736 17.8274 16.7884 17.7608C16.8408 17.6943 16.9141 17.6473 16.9965 17.6274C17.1669 17.586 17.3341 17.5319 17.4965 17.4657L17.514 17.4579C17.675 17.3912 17.8308 17.3125 17.9801 17.2226C18.0531 17.1711 18.1419 17.147 18.2309 17.1546C18.3199 17.1622 18.4033 17.2009 18.4666 17.264L18.9147 17.7121V17.7129ZM17.4298 12.9366C17.7223 13.229 17.9043 13.6137 17.9448 14.0253C17.9854 14.4369 17.882 14.8498 17.6522 15.1936C17.4225 15.5375 17.0806 15.7911 16.6849 15.9111C16.2891 16.0311 15.864 16.0102 15.4819 15.8519C15.0999 15.6936 14.7845 15.4077 14.5897 15.0429C14.3948 14.6782 14.3324 14.2571 14.4132 13.8515C14.4939 13.4459 14.7128 13.0809 15.0326 12.8186C15.3523 12.5563 15.7531 12.413 16.1667 12.4132C16.4014 12.4128 16.6339 12.4589 16.8508 12.5487C17.0676 12.6385 17.2646 12.7703 17.4304 12.9366H17.4298ZM16.1667 11.6556C16.7554 11.6556 17.3259 11.8597 17.781 12.2332C18.2361 12.6067 18.5476 13.1264 18.6625 13.7038C18.7773 14.2812 18.6884 14.8806 18.4109 15.3999C18.1334 15.9191 17.6845 16.326 17.1406 16.5513C16.5967 16.7766 15.9915 16.8064 15.4281 16.6355C14.8647 16.4646 14.378 16.1036 14.051 15.6141C13.7239 15.1246 13.5766 14.5368 13.6343 13.9509C13.692 13.365 13.9511 12.8173 14.3674 12.4009C14.6034 12.1643 14.8839 11.9766 15.1926 11.8487C15.5014 11.7208 15.8324 11.6552 16.1667 11.6556ZM10.0862 4.99343C9.75236 4.65966 9.31312 4.45198 8.84333 4.40577C8.37354 4.35956 7.90226 4.47767 7.50979 4.73999C7.11732 5.0023 6.82793 5.39259 6.69095 5.84436C6.55397 6.29612 6.57785 6.78141 6.75854 7.21753C6.93924 7.65365 7.26555 8.01363 7.68189 8.23613C8.09822 8.45863 8.57882 8.52989 9.04181 8.43776C9.50479 8.34562 9.9215 8.09581 10.221 7.73087C10.5204 7.36593 10.6841 6.90845 10.684 6.43637C10.6844 6.16833 10.6317 5.90286 10.5291 5.65523C10.4265 5.4076 10.276 5.18269 10.0862 4.99343ZM8.64331 3.63772C9.29068 3.63733 9.91815 3.86145 10.4188 4.27187C10.9194 4.6823 11.2623 5.25364 11.3889 5.88852C11.5155 6.52341 11.4181 7.18257 11.1132 7.75366C10.8083 8.32475 10.3148 8.77245 9.71684 9.02046C9.11885 9.26846 8.45338 9.30143 7.83381 9.11375C7.21424 8.92607 6.67892 8.52934 6.31907 7.99119C5.95922 7.45303 5.79711 6.80673 5.86036 6.16244C5.92361 5.51814 6.2083 4.91571 6.66594 4.45781C6.92547 4.1976 7.23387 3.99125 7.5734 3.8506C7.91294 3.70996 8.27691 3.6378 8.64442 3.63827L8.64331 3.63772ZM11.923 16.6709H3.04038C2.93988 16.6709 2.8435 16.631 2.77244 16.5599C2.70138 16.4888 2.66146 16.3924 2.66146 16.2919V14.4862C2.66519 13.2595 3.15417 12.0842 4.02159 11.2169C4.88901 10.3496 6.06438 9.86084 7.29098 9.85732H9.99592C10.8689 9.8568 11.724 10.1052 12.4608 10.5735L12.9395 10.0948C12.9492 10.0851 12.9594 10.0758 12.97 10.0671C13.0986 9.95257 13.2662 9.89165 13.4382 9.89682C13.6103 9.90199 13.7739 9.97285 13.8954 10.0948L14.1982 10.3977C14.3047 10.3421 14.4142 10.2912 14.5268 10.2449C14.6379 10.1989 14.7517 10.1575 14.868 10.1207V9.69202C14.8683 9.51319 14.9397 9.34182 15.0663 9.21558L15.0685 9.21308C15.1949 9.08701 15.3659 9.01601 15.5444 9.01556H16.787C16.9663 9.01578 17.1383 9.08712 17.2651 9.21393C17.3919 9.34075 17.4632 9.51268 17.4634 9.69202V10.1204C17.579 10.1574 17.6922 10.1987 17.8029 10.2443C17.9157 10.2913 18.0252 10.3424 18.1329 10.3977L18.4357 10.0948C18.5627 9.96816 18.7347 9.89701 18.9141 9.89701C19.0935 9.89701 19.2655 9.96816 19.3925 10.0948L20.2712 10.9736C20.3978 11.1005 20.469 11.2726 20.469 11.4519C20.469 11.6313 20.3978 11.8034 20.2712 11.9303L19.9684 12.2329C20.0239 12.3401 20.0749 12.4497 20.1214 12.5615C20.1242 12.5682 20.1267 12.5751 20.1292 12.5818C20.172 12.6864 20.2107 12.7933 20.2453 12.9024H20.6737C20.8531 12.9028 21.025 12.9742 21.1518 13.101C21.2786 13.2278 21.35 13.3998 21.3504 13.5791V14.8218C21.3503 14.9104 21.3327 14.998 21.2986 15.0798C21.2645 15.1616 21.2146 15.2358 21.1518 15.2982L21.1504 15.2999C21.0879 15.3627 21.0136 15.4125 20.9318 15.4465C20.85 15.4806 20.7623 15.4981 20.6737 15.4982H20.2462C20.2095 15.6146 20.1678 15.7285 20.122 15.8391C20.1192 15.8458 20.1164 15.8522 20.1134 15.8586C20.0689 15.9641 20.0207 16.0671 19.9686 16.1675L20.2717 16.4706C20.3346 16.5333 20.3844 16.6078 20.4184 16.6898C20.4524 16.7718 20.4699 16.8598 20.4699 16.9486C20.4699 17.0373 20.4524 17.1253 20.4184 17.2073C20.3844 17.2893 20.3346 17.3638 20.2717 17.4265L19.393 18.3061C19.3828 18.3163 19.3719 18.3258 19.3611 18.3338C19.2323 18.4477 19.065 18.5083 18.8932 18.5031C18.7214 18.4979 18.558 18.4275 18.4363 18.3061L18.1335 18.0033C18.0263 18.0588 17.9168 18.1098 17.8051 18.1563L17.7846 18.1641C17.6799 18.2069 17.5731 18.2456 17.464 18.2802V18.7086C17.4638 18.888 17.3924 19.0599 17.2656 19.1867C17.1388 19.3135 16.9669 19.3849 16.7876 19.3851H15.545C15.3656 19.3849 15.1937 19.3135 15.0669 19.1867C14.9401 19.0599 14.8687 18.888 14.8685 18.7086V18.2802C14.753 18.2432 14.6398 18.2019 14.529 18.1563C14.416 18.1097 14.3068 18.0583 14.199 18.003L13.8962 18.3058C13.8861 18.3156 13.8754 18.3249 13.8643 18.3336C13.7355 18.4475 13.5682 18.508 13.3964 18.5028C13.2246 18.4977 13.0612 18.4272 12.9395 18.3058L12.0608 17.4271C11.9636 17.3301 11.8982 17.2057 11.8734 17.0707C11.8485 16.9356 11.8655 16.7961 11.9219 16.6709H11.923ZM11.9391 11.1425C11.8729 11.2699 11.849 11.4151 11.8709 11.557C11.8928 11.6989 11.9593 11.8302 12.0608 11.9317L12.3636 12.2345C12.3117 12.3349 12.2636 12.4379 12.2191 12.5435C12.2161 12.5499 12.213 12.5562 12.2103 12.5629C12.1643 12.674 12.1229 12.7877 12.0861 12.9038H11.6583C11.4798 12.9041 11.3087 12.9752 11.1824 13.1013L11.1802 13.1038C11.0534 13.2301 10.982 13.4016 10.9815 13.5805V14.8232C10.9818 15.0026 11.0531 15.1745 11.18 15.3014C11.3069 15.4282 11.4789 15.4995 11.6583 15.4996H12.0864C12.1212 15.6085 12.16 15.7154 12.2028 15.8202C12.205 15.8272 12.2078 15.8338 12.2105 15.8405C12.2208 15.8655 12.2311 15.89 12.2419 15.9147H3.41902V14.4867C3.42209 13.4608 3.83103 12.4777 4.55651 11.7522C5.28198 11.0268 6.26505 10.6179 7.29098 10.6149H9.99592C10.6789 10.6146 11.3496 10.7962 11.9391 11.1411V11.1425ZM18.2393 0.542083C18.2227 0.494474 18.2157 0.444013 18.2189 0.393676C18.2221 0.34334 18.2353 0.294146 18.2578 0.248996C18.2802 0.203845 18.3115 0.163653 18.3498 0.130787C18.388 0.0979213 18.4325 0.0730482 18.4805 0.0576341C18.5285 0.04222 18.5791 0.036577 18.6294 0.0410378C18.6796 0.0454985 18.7285 0.0599728 18.773 0.0836071C18.8176 0.107241 18.8569 0.139557 18.8888 0.17865C18.9207 0.217742 18.9444 0.262819 18.9586 0.311224L19.5975 2.27839C19.635 2.36307 19.6401 2.45857 19.6118 2.54677C19.5836 2.63496 19.5239 2.7097 19.4442 2.75678C19.4199 2.77096 19.3942 2.78242 19.3675 2.79095L17.359 3.44325C17.3118 3.45841 17.2621 3.46412 17.2126 3.46006C17.1632 3.456 17.1151 3.44224 17.071 3.41958C17.0269 3.39692 16.9877 3.36579 16.9556 3.32798C16.9236 3.29016 16.8992 3.2464 16.8841 3.19919C16.8689 3.15199 16.8632 3.10225 16.8673 3.05284C16.8713 3.00342 16.8851 2.95529 16.9078 2.91119C16.9304 2.86709 16.9615 2.82789 16.9994 2.79582C17.0372 2.76375 17.0809 2.73944 17.1281 2.72428L18.3618 2.32423C16.5773 1.29638 14.5539 0.755829 12.4945 0.756795C10.4351 0.757761 8.41218 1.30021 6.62859 2.32974C4.845 3.35926 3.36345 4.83968 2.33252 6.6225C1.3016 8.40533 0.757544 10.4279 0.75492 12.4873C0.756288 12.5378 0.747538 12.588 0.729188 12.6349C0.710837 12.6819 0.683258 12.7248 0.648079 12.7609C0.6129 12.7971 0.570834 12.8258 0.524366 12.8454C0.477897 12.865 0.427969 12.8751 0.377529 12.8751C0.32709 12.8751 0.277161 12.865 0.230693 12.8454C0.184225 12.8258 0.142159 12.7971 0.10698 12.7609C0.0718003 12.7248 0.0442211 12.6819 0.0258706 12.6349C0.00752023 12.588 -0.00122921 12.5378 0.00013891 12.4873C0.00215702 10.3112 0.572289 8.17326 1.65413 6.28508C2.73597 4.3969 4.29203 2.82391 6.16836 1.72172C8.04468 0.619534 10.1763 0.0263511 12.3522 0.000857887C14.5281 -0.0246353 16.673 0.518445 18.5746 1.57637L18.2393 0.542083ZM6.76011 24.4576C6.78779 24.5522 6.77744 24.6538 6.73128 24.7408C6.68512 24.8278 6.60679 24.8934 6.51298 24.9235C6.41918 24.9536 6.31733 24.9459 6.22914 24.902C6.14095 24.8581 6.0734 24.7815 6.04089 24.6885L5.40195 22.7213C5.36444 22.6366 5.35933 22.5411 5.3876 22.4529C5.41587 22.3647 5.47555 22.29 5.55529 22.2429C5.57952 22.2287 5.60523 22.2173 5.63197 22.2087L7.63768 21.5584C7.73302 21.5278 7.83661 21.5363 7.92567 21.5821C8.01473 21.6278 8.08196 21.7071 8.11258 21.8024C8.14319 21.8978 8.13467 22.0014 8.08891 22.0904C8.04314 22.1795 7.96387 22.2467 7.86853 22.2774L6.63815 22.6763C8.42277 23.7042 10.4463 24.2447 12.5057 24.2437C14.5652 24.2427 16.5882 23.7002 18.3718 22.6706C20.1554 21.641 21.6369 20.1604 22.6678 18.3775C23.6987 16.5945 24.2426 14.5719 24.2451 12.5123C24.2437 12.4619 24.2525 12.4117 24.2708 12.3648C24.2892 12.3178 24.3167 12.2749 24.3519 12.2388C24.3871 12.2026 24.4292 12.1739 24.4756 12.1543C24.5221 12.1347 24.572 12.1246 24.6225 12.1246C24.6729 12.1246 24.7228 12.1347 24.7693 12.1543C24.8158 12.1739 24.8578 12.2026 24.893 12.2388C24.9282 12.2749 24.9558 12.3178 24.9741 12.3648C24.9925 12.4117 25.0012 12.4619 24.9999 12.5123C24.9979 14.6886 24.4278 16.8266 23.3459 18.7149C22.264 20.6031 20.7079 22.1762 18.8315 23.2784C16.9551 24.3806 14.8234 24.9737 12.6474 24.9991C10.4714 25.0246 8.32645 24.4814 6.42481 23.4233L6.76011 24.4576Z" fill="#7FF803"/>
</svg>
