<svg width="50" height="50" viewBox="0 0 50 50" fill="none" xmlns="http://www.w3.org/2000/svg">
<path d="M17.1873 35L24.9998 27.1875L32.8123 35L34.9998 32.8125L27.1873 25L34.9998 17.1875L32.8123 15L24.9998 22.8125L17.1873 15L14.9998 17.1875L22.8123 25L14.9998 32.8125L17.1873 35ZM24.9998 45.8333C22.1526 45.8333 19.4616 45.2864 16.9269 44.1927C14.3922 43.0989 12.1787 41.6059 10.2863 39.7135C8.39393 37.8211 6.90088 35.6076 5.80713 33.0729C4.71338 30.5382 4.1665 27.8472 4.1665 25C4.1665 22.118 4.71338 19.4097 5.80713 16.875C6.90088 14.3402 8.39393 12.1354 10.2863 10.2604C12.1787 8.38538 14.3922 6.901 16.9269 5.80725C19.4616 4.7135 22.1526 4.16663 24.9998 4.16663C27.8818 4.16663 30.5901 4.7135 33.1248 5.80725C35.6596 6.901 37.8644 8.38538 39.7394 10.2604C41.6144 12.1354 43.0988 14.3402 44.1925 16.875C45.2863 19.4097 45.8332 22.118 45.8332 25C45.8332 27.8472 45.2863 30.5382 44.1925 33.0729C43.0988 35.6076 41.6144 37.8211 39.7394 39.7135C37.8644 41.6059 35.6596 43.0989 33.1248 44.1927C30.5901 45.2864 27.8818 45.8333 24.9998 45.8333ZM24.9998 42.7083C29.9304 42.7083 34.1144 40.9809 37.5519 37.526C40.9894 34.0711 42.7082 29.8958 42.7082 25C42.7082 20.0694 40.9894 15.8854 37.5519 12.4479C34.1144 9.01038 29.9304 7.29163 24.9998 7.29163C20.104 7.29163 15.9287 9.01038 12.4738 12.4479C9.01893 15.8854 7.2915 20.0694 7.2915 25C7.2915 29.8958 9.01893 34.0711 12.4738 37.526C15.9287 40.9809 20.104 42.7083 24.9998 42.7083Z" fill="#74C410"/>
</svg>
