<svg width="21" height="21" viewBox="0 0 21 21" fill="none" xmlns="http://www.w3.org/2000/svg">
<path d="M12.4248 12.1283C12.3129 12.3387 12.159 12.5142 11.9632 12.6579C11.768 12.801 11.5334 12.9078 11.2606 12.9784C11.1417 13.0082 11.0171 13.0292 10.89 13.0464V13.8398H9.94393V13.0623C9.6737 13.0394 9.41622 12.9974 9.17334 12.9307C8.80204 12.829 8.31758 12.4195 8.31758 12.4195C8.27563 12.3953 8.24829 12.3527 8.24255 12.3051C8.2362 12.258 8.25272 12.2097 8.2858 12.1753L8.76074 11.701C8.81225 11.6502 8.89107 11.6407 8.95337 11.6781C8.95337 11.6781 9.30814 11.9865 9.57706 12.0603C9.84598 12.1334 10.113 12.1702 10.38 12.1702C10.7157 12.1702 10.993 12.1111 11.2135 11.9922C11.4342 11.8727 11.5435 11.6883 11.5435 11.4353C11.5435 11.2541 11.4901 11.1104 11.3807 11.0048C11.2727 10.9006 11.0896 10.8351 10.8302 10.8065L9.98075 10.7334C9.47721 10.6838 9.08939 10.5439 8.816 10.3137C8.5426 10.0823 8.40718 9.73263 8.40718 9.26404C8.40718 9.00529 8.45931 8.7745 8.56421 8.57166C8.66976 8.36886 8.81278 8.19779 8.99463 8.05794C9.17647 7.9187 9.38818 7.81315 9.62976 7.74325C9.73022 7.71464 9.83577 7.69491 9.94384 7.67778V6.99365H10.8899V7.66378C11.1112 7.68538 11.3216 7.72099 11.5174 7.77502C11.8499 7.86532 12.1983 8.13806 12.1983 8.13806C12.2422 8.16097 12.2721 8.20353 12.2797 8.25187C12.2873 8.30147 12.2708 8.34977 12.2364 8.38538L11.7914 8.8374C11.7443 8.88509 11.6706 8.89718 11.6095 8.86601C11.6095 8.86601 11.3463 8.67847 11.1187 8.6193C10.8911 8.56014 10.652 8.52966 10.4003 8.52966C10.0722 8.52966 9.82804 8.59326 9.67167 8.71851C9.51399 8.84501 9.43514 9.00907 9.43514 9.21122C9.43514 9.39368 9.49109 9.53357 9.60298 9.63086C9.71488 9.72941 9.90372 9.79297 10.1695 9.8197L10.914 9.8833C11.4671 9.93225 11.8848 10.0791 12.1678 10.3233C12.4515 10.5687 12.5926 10.9254 12.5926 11.3933C12.5926 11.6737 12.5367 11.9185 12.4248 12.1283Z" fill="#FFDF31"/>
<path d="M10.4167 0C4.6641 0 0 4.66345 0 10.4167C0 16.1692 4.6641 20.8333 10.4167 20.8333C16.1699 20.8333 20.8333 16.1692 20.8333 10.4167C20.8333 4.66345 16.1699 0 10.4167 0ZM19.7589 10.4167C19.7589 11.6952 19.5007 12.9147 19.0334 14.0254L17.2424 13.2834C17.6137 12.401 17.8197 11.4327 17.8197 10.4167C17.8197 10.4034 17.8191 10.39 17.8191 10.3767H19.7582C19.7582 10.39 19.7589 10.4033 19.7589 10.4167ZM10.4167 17.1693C6.69352 17.1693 3.66467 14.1398 3.66467 10.4167C3.66467 6.69352 6.69352 3.66467 10.4167 3.66467C14.1398 3.66467 17.1687 6.69352 17.1687 10.4167C17.1687 14.1398 14.1398 17.1693 10.4167 17.1693ZM1.07446 10.4167C1.07446 9.1381 1.3326 7.91866 1.80054 6.80733L3.59155 7.54993C3.2196 8.43237 3.01363 9.40068 3.01363 10.4167C3.01363 10.43 3.01428 10.4427 3.01428 10.4561L1.07515 10.4567C1.07511 10.4434 1.07446 10.43 1.07446 10.4167ZM19.057 6.86711L17.2653 7.60905C16.8851 6.68526 16.3244 5.85494 15.6257 5.16256L16.9964 3.79179C17.8738 4.66284 18.5782 5.70679 19.057 6.86711ZM14.0254 1.79989L13.2828 3.59151C12.401 3.2196 11.4327 3.01363 10.4167 3.01363C10.4033 3.01363 10.39 3.01428 10.3772 3.01428V1.07511C10.39 1.07511 10.4033 1.07446 10.4167 1.07446C11.6952 1.07446 12.914 1.33325 14.0254 1.79989ZM6.86711 1.77637L7.60905 3.56803C6.68587 3.94824 5.85494 4.50899 5.16256 5.20772L3.79183 3.83695C4.66284 2.95955 5.70679 2.25513 6.86711 1.77637ZM1.77637 13.9656L3.56803 13.2243C3.94824 14.1475 4.50899 14.9784 5.20707 15.6708L3.8363 17.0415C2.95894 16.1705 2.25448 15.1265 1.77637 13.9656ZM6.80733 19.0334L7.54928 17.2418C8.43176 17.6144 9.40068 17.8204 10.4167 17.8204C10.43 17.8204 10.4434 17.8191 10.4561 17.8191V19.7583C10.4434 19.7583 10.43 19.7595 10.4167 19.7595C9.13749 19.7595 7.91805 19.5007 6.80733 19.0334ZM13.9662 19.057L13.2243 17.2653C14.1475 16.8851 14.9784 16.3244 15.6708 15.6263L17.0415 16.9971C16.1705 17.8738 15.1265 18.5782 13.9662 19.057Z" fill="#FFDF31"/>
<path d="M5.5802 12.1097C5.54524 12.0029 5.4473 11.9355 5.34179 11.9355C5.31636 11.9355 5.29028 11.9394 5.26485 11.9476C5.13326 11.9896 5.06074 12.1307 5.10274 12.2623C5.12308 12.3253 5.14469 12.3876 5.16821 12.4505L5.16886 12.4518L5.17142 12.4588V12.4594V12.4613L5.17268 12.462V12.4626L5.17525 12.469V12.4703H5.17651V12.4715V12.4722L5.17716 12.4734V12.4753L5.17842 12.4798L5.17907 12.4804L5.17972 12.4811L5.18037 12.4823V12.4836V12.4843L5.18102 12.4849L5.18168 12.4856V12.4862L5.18294 12.4881V12.4888L5.18359 12.49L5.18424 12.4907V12.4913V12.4926V12.4939H5.1855V12.4951V12.4964V12.497L5.18615 12.4983V12.4989L5.1868 12.5002V12.5009L5.18806 12.5021V12.5028V12.5034L5.18872 12.5047L5.18937 12.5059L5.19002 12.5072L5.19067 12.5079L5.19193 12.511V12.5117V12.5136V12.5149L5.19319 12.5155V12.5168V12.5174L5.19384 12.5187H5.19449L5.19575 12.5225L5.19702 12.5238V12.5244L5.19767 12.5257L5.19832 12.5276L5.20088 12.5365V12.5372C5.28861 12.7578 5.39416 12.9707 5.51497 13.1729C5.5614 13.2511 5.64469 13.295 5.72985 13.295C5.77372 13.295 5.81758 13.2836 5.85827 13.2594C5.97717 13.1875 6.01595 13.035 5.94474 12.9167C5.79317 12.661 5.66984 12.3908 5.5802 12.1097Z" fill="#FFDF31"/>
<path d="M7.30043 6.35213C7.41168 6.2714 7.4365 6.11434 7.35573 6.00309C7.30678 5.93506 7.2311 5.8988 7.15354 5.8988C7.10268 5.8988 7.05056 5.91406 7.00604 5.94649L7.00478 5.94714L7.00413 5.94779L7.00348 5.94845L7.00283 5.9491L7.00217 5.94975L7.00091 5.95101H6.99965L6.999 5.95227H6.99843L6.99778 5.95353H6.99713L6.99587 5.95418L6.99522 5.95483H6.99457L6.99074 5.9574L6.98948 5.95866V5.95992H6.98822L6.98757 5.96057L6.98692 5.96122H6.98627C6.72369 6.1545 6.48207 6.37638 6.26845 6.62179C6.17755 6.72607 6.18898 6.88436 6.29323 6.97465C6.34027 7.01599 6.39939 7.03634 6.45725 7.03634C6.52781 7.03634 6.5965 7.00773 6.6461 6.95052C6.84076 6.72664 7.06073 6.52572 7.30043 6.35213Z" fill="#FFDF31"/>
<path d="M8.26162 15.0675C7.99139 14.9486 7.73329 14.7998 7.49485 14.623C7.45034 14.5906 7.39821 14.5747 7.34609 14.5747C7.26979 14.5747 7.19415 14.6103 7.14516 14.6764C7.06187 14.7877 7.08665 14.9447 7.19794 15.0255C7.36135 15.1475 7.53428 15.2575 7.71482 15.3548L7.71608 15.3555L7.71734 15.3567L7.72243 15.3593V15.3606H7.72369L7.72626 15.3612L7.73199 15.3638H7.73264L7.73329 15.365L7.73395 15.3663H7.7346L7.73525 15.3669L7.74033 15.3689H7.7416L7.74286 15.3695L7.74412 15.3702H7.74477L7.74668 15.3714V15.3727L7.74925 15.3746L7.75116 15.3752H7.75181H7.75372L7.75437 15.3759L7.75563 15.3765H7.75628L7.76072 15.3791L7.76198 15.3798H7.76324V15.3809V15.3816H7.7645L7.76577 15.3822L7.76959 15.3841L7.77085 15.3848L7.77211 15.3854L7.77276 15.3861H7.77342H7.77468V15.3873H7.77533H7.77598V15.3886H7.77724H7.77915L7.7798 15.3899H7.78106L7.78233 15.3911H7.78359H7.78424L7.78615 15.3924L7.78741 15.393V15.3937L7.78867 15.3943H7.78994V15.395H7.7912L7.79246 15.3956L7.79372 15.3963L7.79498 15.3969L7.79563 15.3976L7.79754 15.3988H7.7982L7.79885 15.4001H7.80011L7.80076 15.4008H7.80141L7.80267 15.4014V15.4021H7.80393H7.80458H7.80585L7.8065 15.4027L7.80776 15.4034L7.80902 15.4046L7.81028 15.4053V15.4059L7.81154 15.4066L7.8128 15.4072L7.81406 15.4079H7.81533L7.81659 15.4085L7.81785 15.4092L7.81911 15.4098H7.82037V15.4105L7.82163 15.4111L7.82289 15.4118L7.82416 15.413L7.82542 15.4137L7.82668 15.4143L7.82794 15.415L7.8292 15.4156H7.83046L7.83111 15.4163L7.83176 15.417H7.83303H7.83429L7.83494 15.4182L7.83811 15.4195L7.83876 15.4207H7.83941H7.84068L7.84133 15.422H7.84198H7.84324L7.84389 15.4226L7.84454 15.4233H7.8458L7.84706 15.424H7.84833V15.4246L7.84959 15.4253L7.85085 15.4259V15.4266H7.85211V15.4272L7.85337 15.4279H7.85463L7.85655 15.4291L7.8572 15.4298H7.85846L7.85911 15.431H7.85976H7.86102L7.86167 15.4317H7.86232L7.86358 15.4323L7.86741 15.4349L7.86867 15.4355H7.86932H7.86997V15.4362L7.87123 15.4368L7.8725 15.4375H7.87376L7.87502 15.4388H7.87567L7.87758 15.4394H7.87884V15.4401L7.8801 15.4407L7.88137 15.4414L7.88263 15.442L7.88389 15.4427V15.4433L7.8858 15.444H7.88645L7.88771 15.4446V15.4453H7.88898H7.89024V15.4465H7.8915H7.89276L7.89341 15.4472L7.89406 15.4478H7.89471L7.89662 15.4491H7.89728H7.89793L7.89919 15.4504L7.90045 15.451L7.9011 15.4517H7.90175H7.90301L7.90427 15.4529L7.90554 15.4536L7.9068 15.4542H7.90806L7.90932 15.4555H7.91058L7.91184 15.4561L7.9131 15.4568V15.4574L7.91437 15.4581L7.91563 15.4587L7.91689 15.4594H7.91754H7.91819L7.91945 15.46V15.4607L7.92071 15.4613L7.92136 15.462H7.92263H7.92328H7.92393L7.92584 15.4633H7.9271L7.92836 15.4639L7.92901 15.4646L7.93028 15.4652L7.93093 15.4659L7.93219 15.4665L7.93345 15.4672H7.93483L7.93609 15.4684H7.93675L7.9374 15.4691L7.93866 15.4697H7.93992L7.94057 15.471H7.94122H7.94248L7.94374 15.4716H7.94501L7.94627 15.4723L7.94753 15.4729V15.4736L7.94818 15.4742H7.94883L7.95009 15.4749H7.95135L7.952 15.4762H7.95266H7.95392L7.95457 15.4768L7.95648 15.4781L7.95774 15.4787H7.95839H7.95904H7.96031L7.96096 15.48H7.96161H7.96287L7.96352 15.4812L7.96669 15.4825L7.96795 15.4832L7.96861 15.4838L7.96987 15.4845H7.97052L7.97178 15.4851H7.97243L7.97369 15.4864L7.9756 15.487L7.97752 15.4877H7.97943V15.4883L7.98069 15.489H7.98134L7.9826 15.4896L7.98452 15.4909L7.98834 15.4928H7.99025V15.4934L7.99151 15.4941H7.99216L7.99851 15.4973H7.99916L8.00108 15.4979L8.00234 15.4986L8.00616 15.5005L8.00808 15.5017L8.00999 15.5024L8.01125 15.5031V15.5037L8.01316 15.5044L8.02016 15.5069H8.02142L8.06337 15.5253C8.09645 15.54 8.12949 15.5476 8.16319 15.5476C8.25982 15.5476 8.35203 15.4897 8.39333 15.3957C8.44855 15.2677 8.38877 15.1208 8.26162 15.0675Z" fill="#FFDF31"/>
<path d="M15.7498 10.8293C15.6226 10.8293 15.5139 10.9253 15.5018 11.0551C15.4726 11.3494 15.4103 11.64 15.3161 11.9191C15.2716 12.0507 15.3416 12.1925 15.4726 12.2363C15.4992 12.2465 15.526 12.2503 15.5527 12.2503C15.6595 12.2503 15.7549 12.1842 15.7905 12.0799V12.0787L15.7911 12.0774L15.7918 12.0767V12.0761L15.7924 12.0742V12.0735L15.7931 12.0723L15.7937 12.0697H15.7944V12.0684V12.0672H15.795V12.0659L15.7957 12.0653V12.0647V12.0634L15.7963 12.0621L15.797 12.0615V12.0608L15.7982 12.057V12.0564L15.7989 12.0557L15.7995 12.0544V12.0532V12.0525V12.0519L15.8008 12.0506V12.0494V12.0481L15.8021 12.0443V12.0436L15.8033 12.043V12.0423V12.0417V12.0404H15.804L15.8046 12.0391V12.0379V12.0366V12.036L15.8053 12.0347H15.8059V12.0328L15.8072 12.0315V12.0303V12.0296V12.0284V12.0277L15.8085 12.0271V12.0264V12.0251V12.024L15.8097 12.0227V12.0214L15.811 12.0202V12.0176V12.0164L15.8116 12.0157L15.8123 12.0144V12.0138V12.0131L15.8129 12.0119L15.8136 12.0112V12.01V12.0087L15.8148 12.0068V12.0049V12.0042L15.8161 12.003V12.0023V12.0011L15.8174 11.9998V11.9979V11.9972V11.996L15.8186 11.9928L15.8193 11.9921L15.8199 11.9909L15.8206 11.9883V11.9864L15.8212 11.9845L15.8238 11.9794V11.9781V11.9769V11.9756V11.975L15.8251 11.9743V11.9737V11.9718L15.8276 11.966V11.9648V11.9641L15.8283 11.9628V11.9622L15.8289 11.9609V11.9603L15.8296 11.959L15.8315 11.9527V11.9508L15.8321 11.9495V11.9489L15.8328 11.9476L15.8353 11.9412V11.94V11.9387V11.9381L15.8366 11.9368L15.8398 11.9247L15.8404 11.9222L15.8436 11.9126L15.8443 11.9107L15.8468 11.9012V11.8993L15.8481 11.8967C15.9219 11.6412 15.974 11.376 16.0007 11.1026C16.0134 10.9659 15.9129 10.8432 15.775 10.8299L15.7498 10.8293Z" fill="#FFDF31"/>
<path d="M5.07863 10.0472C5.20705 10.0472 5.31642 9.94934 5.32786 9.81901C5.35329 9.52401 5.41433 9.23283 5.50588 8.95308C5.54913 8.8221 5.47788 8.67969 5.34629 8.63774C5.32021 8.62821 5.29352 8.625 5.26808 8.625C5.1638 8.625 5.0659 8.69112 5.03029 8.79541C5.00169 8.88188 4.97626 8.97026 4.95274 9.05863V9.06055L4.95148 9.06246V9.06437L4.95021 9.07011V9.07137L4.94956 9.07263L4.94891 9.07385V9.0745V9.07515L4.94826 9.07581L4.94761 9.07707V9.07772V9.07898V9.07963L4.94696 9.08089V9.08215L4.94631 9.0828V9.08346V9.08472V9.08537L4.94566 9.08602V9.08728V9.08793L4.94501 9.08919V9.09045V9.09111V9.09176L4.94435 9.09302L4.9437 9.09367V9.09558L4.94244 9.09749V9.09941V9.10067L4.94179 9.10193H4.94114V9.10319V9.1051L4.93988 9.11019V9.11084L4.93923 9.1121V9.11275L4.93858 9.11401L4.93793 9.11593C4.90615 9.24626 4.88006 9.3785 4.85972 9.51265V9.51392V9.51457V9.51522L4.85907 9.51648V9.51713L4.85842 9.51839V9.51904V9.52287V9.52352V9.52478L4.85716 9.52543V9.52669V9.52734V9.52861V9.52926V9.53052V9.53117V9.53182V9.53308L4.85589 9.53434V9.5356V9.53687V9.53752V9.53878V9.53943V9.54069V9.54134V9.54199V9.54325V9.54452L4.85463 9.54578V9.54704V9.54769V9.55212V9.55339V9.55404L4.85337 9.5553V9.55595V9.55721V9.55847V9.55912L4.85211 9.56738C4.84259 9.63607 4.83559 9.70536 4.8292 9.77527C4.81647 9.91325 4.91823 10.034 5.05556 10.0461L5.07863 10.0472Z" fill="#FFDF31"/>
<path d="M15.5056 8.93774C15.5298 8.93774 15.5552 8.93457 15.5807 8.92631C15.7117 8.88497 15.786 8.74512 15.7447 8.61287C15.6449 8.29179 15.5082 7.98535 15.3397 7.69926C15.2939 7.6204 15.2106 7.57593 15.1242 7.57593C15.0809 7.57593 15.0377 7.58736 14.9983 7.61088C14.8787 7.68018 14.8393 7.83402 14.9086 7.95357C15.0593 8.20854 15.1789 8.48063 15.2666 8.76229C15.2996 8.8691 15.3988 8.93774 15.5056 8.93774Z" fill="#FFDF31"/>
<path d="M14.347 13.8296C14.2771 13.8296 14.2084 13.8569 14.1588 13.9135C13.9617 14.1354 13.7405 14.3344 13.5001 14.5067C13.3882 14.5868 13.3615 14.7439 13.4423 14.8564C13.4906 14.9244 13.5675 14.96 13.6457 14.96C13.6959 14.96 13.7468 14.946 13.7907 14.9149C14.0018 14.7649 14.1969 14.597 14.3769 14.4139L14.3839 14.4056L14.3845 14.405H14.3852H14.3864L14.3896 14.4024V14.4018L14.3903 14.4011L14.3915 14.4005V14.3992L14.3922 14.3986L14.3928 14.3973L14.3966 14.3929L14.3979 14.3916V14.391L14.3986 14.3903L14.3992 14.3896L14.3999 14.3884L14.4005 14.3877V14.3865H14.4018L14.403 14.3858H14.4037H14.4042H14.4055V14.3852V14.384H14.4067L14.4074 14.3827L14.408 14.3815L14.4093 14.3802L14.41 14.3789L14.4106 14.3777H14.4119V14.377L14.4131 14.3764L14.4144 14.3757V14.3751H14.4157V14.3744L14.4169 14.3738V14.3731L14.4182 14.3712L14.4194 14.37L14.4201 14.3693L14.4213 14.368V14.3674L14.422 14.3661H14.4227L14.4258 14.361L14.4277 14.3598L14.4296 14.3585C14.4646 14.3229 14.4996 14.2841 14.5339 14.2454C14.6255 14.1417 14.6153 13.984 14.5123 13.8918C14.464 13.8499 14.4055 13.8296 14.347 13.8296Z" fill="#FFDF31"/>
<path d="M11.4519 15.4407L11.3972 15.4477C11.12 15.5087 10.8339 15.5405 10.5478 15.5405L10.5166 15.5398H10.516C10.378 15.5398 10.2655 15.6517 10.2642 15.7891C10.2629 15.9277 10.3735 16.0396 10.5109 16.0409H10.5121H10.5217H10.5236H10.5242H10.5249H10.5338H10.5401H10.5414H10.5427H10.5439H10.5452H10.5477H10.549H10.5503H10.5515H10.5528H10.554H10.5553H10.556H10.5566H10.5573H10.5592H10.5611H10.5617H10.5624H10.563H10.5643H10.5656H10.5662H10.5669H10.5707H10.5726H10.5733H10.5745H10.5764H10.5771H10.5783H10.579H10.5803H10.5809H10.5822H10.5841H10.5847H10.586H10.5866H10.5873H10.5886H10.5892H10.5899H10.5918H10.5924H10.5943H10.595H10.5956H10.5963H10.5975H10.5988H10.6001H10.6007H10.6014H10.6026H10.6039H10.6052H10.6058H10.6071H10.6077H10.609H10.6096H10.6103H10.6109H10.6128H10.6154H10.6161H10.6167H10.618H10.6192L10.6205 16.0396H10.6218H10.623H10.6237H10.6243H10.625H10.6262H10.6269H10.6281H10.6294H10.6307H10.6319H10.6383H10.6395H10.6402H10.6421H10.6447H10.6459H10.6472H10.6484H10.6497H10.6516H10.6523H10.6529H10.6536H10.6555H10.6637H10.665H10.6663H10.6675H10.6688H10.6694H10.6707H10.6714H10.6726H10.6739H10.6751H10.6764H10.679L10.6841 16.0383H10.6847H10.686H10.6866H10.6879H10.6904H10.6917H10.6936H10.6943H10.6955H10.6968H10.698H10.6993H10.707H10.7076H10.7095H10.7108L10.7127 16.0377H10.7133H10.7146H10.7165H10.7324H10.7337H10.7363L10.7375 16.037H10.7401C10.9779 16.0269 11.2131 15.9976 11.4413 15.9493H11.442H11.4432H11.4445H11.4452H11.4464H11.4471L11.4483 15.948H11.4496H11.4509L11.4521 15.9468H11.454H11.4559H11.4579H11.4585L11.4598 15.9461H11.461L11.4623 15.9455H11.4629L11.4636 15.9448H11.4649H11.4661H11.4668H11.468L11.4687 15.9442H11.4699L11.4706 15.9435H11.4712H11.4725L11.4738 15.9429L11.4801 15.9416H11.4808L11.4827 15.9403H11.4839H11.4846H11.4852H11.4865H11.4878L11.489 15.9391L11.5068 15.9353C11.641 15.9054 11.7256 15.7725 11.6957 15.6377C11.6693 15.5208 11.5663 15.4407 11.4519 15.4407Z" fill="#FFDF31"/>
<path d="M13.5217 6.28406C13.598 6.28406 13.6731 6.24972 13.7214 6.18298C13.8059 6.073 13.7824 5.91593 13.6718 5.83329C13.64 5.80851 13.6076 5.7856 13.5751 5.76082L13.5732 5.76017L13.572 5.75952L13.5675 5.75635H13.5669L13.565 5.75509L13.5637 5.75444V5.75378L13.5586 5.75122V5.75057L13.5573 5.74992L13.5561 5.74866H13.5554L13.5542 5.7474L13.5523 5.74613L13.551 5.74548L13.5497 5.74491L13.549 5.74365H13.5478L13.5471 5.743L13.5459 5.74235V5.7417L13.5446 5.74105V5.7404L13.5433 5.73975L13.5427 5.7391L13.5414 5.73844L13.5408 5.73779L13.5395 5.73726L13.5383 5.736H13.5376L13.537 5.73474H13.5363L13.535 5.73409L13.5344 5.73344L13.5331 5.73218L13.5319 5.73153L13.5312 5.73088L13.5306 5.73022H13.5293L13.5281 5.72957V5.72892H13.5274L13.5268 5.72827V5.72762L13.5242 5.72636L13.523 5.72571H13.5223L13.5217 5.72506H13.5204V5.7238H13.5191L13.5185 5.72314H13.5178L13.5166 5.72188L13.514 5.72062V5.71936H13.5127V5.71871L13.5115 5.71806V5.71741L13.5102 5.71676L13.5032 5.71232L13.5026 5.71167H13.5019L13.5013 5.71041H13.5L13.4956 5.70658L13.4937 5.70593L13.4924 5.70467L13.4835 5.69959C13.2718 5.55652 13.0461 5.43193 12.8108 5.32764C12.7778 5.31303 12.7428 5.30603 12.7091 5.30603C12.6125 5.30603 12.5216 5.36198 12.4802 5.45544C12.4236 5.58195 12.4815 5.72945 12.608 5.7867C12.8783 5.90495 13.1351 6.05501 13.3716 6.23303C13.4168 6.2675 13.4696 6.28406 13.5217 6.28406Z" fill="#FFDF31"/>
<path d="M10.3479 5.29484H10.3505C10.4878 5.29484 10.601 5.1842 10.6029 5.04687C10.6048 4.9102 10.4961 4.79765 10.3606 4.79508L10.3021 4.79443H10.3002H10.2996H10.2983H10.2976H10.297H10.2957H10.2945H10.2932H10.292H10.2907H10.29H10.2888H10.2881H10.2856H10.2811H10.2805H10.2792H10.278H10.2767H10.2754H10.2741H10.2735H10.2728H10.2716H10.2703H10.269H10.2678H10.2659H10.2652H10.264H10.2633H10.262H10.2614H10.2601H10.2589H10.2576H10.2563H10.2538H10.2525H10.2513H10.25H10.2494H10.2474H10.2462H10.2449H10.2437H10.2424H10.2411H10.2405H10.2398H10.2386H10.2373H10.236H10.2341H10.2334H10.2322H10.2315H10.2309H10.2296H10.2284H10.2277H10.2264L10.2258 4.79508H10.2245H10.2239H10.2232H10.2207H10.22H10.2194H10.2181H10.2168H10.2156H10.2143H10.2137H10.2131H10.2118H10.2106H10.2099H10.2087H10.208H10.2067H10.2055H10.2042H10.203H10.2017H10.2004H10.1992H10.1979H10.1967H10.1954H10.1941H10.1935H10.1903H10.189H10.1878H10.1865H10.1853H10.184H10.1827H10.1821H10.1814H10.1802H10.1789H10.1783H10.1764H10.1751H10.1738H10.1724H10.1718H10.1698H10.1686H10.1673H10.1661H10.1648H10.1635H10.1623H10.1584H10.1572L10.1559 4.79635H10.1547H10.154H10.1534H10.1521H10.1508H10.1501H10.1495H10.1482H10.147H10.1463H10.1444H10.1431H10.1412H10.1406H10.1393H10.1381H10.1368H10.1362H10.1355H10.1342H10.133H10.1317H10.1305H10.1298H10.1266H10.1254H10.1241H10.1228H10.1222H10.1215H10.1203H10.119H10.1184H10.1177H10.1165H10.1158L10.1114 4.79761H10.1095H10.1088H10.1075H10.1063H10.1056H10.1044H10.1037H10.1025H10.1012H10.0999H10.0936H10.0923H10.0898V4.79887H10.0885H10.0879H10.0866H10.0777H10.0764H10.0758H10.0745H10.0739H10.0732H10.0719H10.0707H10.07L10.0643 4.80013H10.0617H10.0605H10.0598H10.0586H10.0579H10.0566H10.0554H10.0547H10.0465H10.0446H10.0439H10.0426H10.0414L10.0408 4.80147H10.03H10.0287H10.0268H10.0249L10.0109 4.80212C9.7655 4.81803 9.52645 4.85364 9.29309 4.90702C9.15768 4.9388 9.07503 5.07361 9.10616 5.20711C9.13224 5.32284 9.23523 5.40039 9.34965 5.40039L9.40625 5.39404C9.693 5.32792 9.98926 5.29484 10.2855 5.29484H10.3479Z" fill="#FFDF31"/>
</svg>
