<svg width="24" height="40" viewBox="0 0 24 40" fill="none" xmlns="http://www.w3.org/2000/svg">
<path d="M13.1033 33.403C12.5562 31.7346 12.5562 30.0419 13.1033 28.3737L13.5175 28.5143C13.0011 30.0907 13.0011 31.6879 13.5175 33.2628L13.1033 33.403ZM6.4034 32.9013C6.15456 32.226 6.02842 31.5159 6.02842 30.7867C6.02842 28.6964 7.0954 26.7641 8.83053 25.6685L9.16971 26.6251L10.7446 24.724L8.34137 24.2848L8.67033 25.2154L8.66181 25.1998C6.73578 26.3734 5.54951 28.4932 5.54951 30.7864C5.54951 31.5799 5.68757 32.3541 5.96198 33.0885L6.4034 32.9013ZM10.8981 33.403C11.4435 31.7346 11.4435 30.0419 10.8981 28.3737L10.4839 28.5143C10.9987 30.0907 10.9987 31.6879 10.4839 33.2628L10.8981 33.403ZM6.10844 13.5488C5.25623 13.0974 4.49775 12.5453 3.84665 11.8821C3.19555 11.2189 2.65183 10.4464 2.21039 9.57831C1.28998 10.686 1.33942 12.3457 2.36549 13.3908C3.38988 14.436 5.021 14.4863 6.10844 13.5488ZM12.0007 26.4448C14.4074 26.4448 16.3641 28.4396 16.3641 30.8892C16.3641 33.3406 14.4074 35.3337 12.0007 35.3337C9.59406 35.3337 7.63736 33.3406 7.63736 30.8892C7.63736 28.4379 9.59406 26.4448 12.0007 26.4448ZM8.0737 30.8892C8.0737 33.0941 9.8361 34.8892 12.0007 34.8892C14.1653 34.8892 15.9277 33.0941 15.9277 30.8892C15.9277 28.6844 14.1653 26.8892 12.0007 26.8892C9.8361 26.8892 8.0737 28.6844 8.0737 30.8892ZM11.4008 14.4377C12.4882 15.3752 14.1176 15.3248 15.1437 14.2797C16.1698 13.2345 16.2209 11.5749 15.2988 10.4672C14.8557 11.3353 14.3136 12.1078 13.6625 12.771C13.0114 13.4342 12.253 13.9863 11.4008 14.4377ZM24 1.07813V39.0972C24 39.5955 23.6028 40 23.1137 40H0.886285C0.397109 40 0 39.5955 0 39.0972L0.00170444 1.07813C0.00170444 0.482667 0.475522 0 1.06017 0H22.9415C23.5261 0 24 0.482622 24 1.07813ZM23.3454 22.9999H0.655988V39.0972C0.655988 39.2275 0.759958 39.3334 0.887791 39.3334H23.1152C23.243 39.3334 23.347 39.2275 23.347 39.0972L23.3454 22.9999ZM23.3454 3.8888H0.655988V22.3332H23.3454V3.8888ZM23.3454 1.07804C23.3454 0.850613 23.1648 0.666587 22.9415 0.666587H1.06013C0.836849 0.666587 0.65618 0.850613 0.65618 1.07804V3.22213H23.3456L23.3454 1.07804ZM11.9392 36.8074C10.9591 36.8074 9.99955 36.5556 9.14219 36.0869L9.78479 35.3108L7.38154 34.8716L8.20988 37.2101L8.8303 36.4601L8.82349 36.4706C9.77116 37.0105 10.8432 37.2952 11.9358 37.2952C13.8703 37.2952 15.66 36.4272 16.8803 34.9081L16.4985 34.6112C15.3736 36.0105 13.7219 36.8074 11.9392 36.8074ZM19.2003 25.3336C19.2003 24.2312 20.0814 23.3336 21.1638 23.3336C22.2461 23.3336 23.1273 24.2312 23.1273 25.3336C23.1273 26.436 22.2461 27.3336 21.1638 27.3336C20.0814 27.3336 19.2003 26.436 19.2003 25.3336ZM19.6366 25.3336C19.6366 26.1912 20.3218 26.8892 21.1638 26.8892C22.0058 26.8892 22.6909 26.1912 22.6909 25.3336C22.6909 24.476 22.0058 23.778 21.1638 23.778C20.3218 23.778 19.6366 24.476 19.6366 25.3336ZM17.8435 30.6043L16.8584 30.4254L17.6901 32.764L19.2616 30.8612L18.3105 30.6894H18.3259C18.2798 27.5383 16.0061 24.8662 12.969 24.3631L12.9076 24.8475C15.6807 25.3162 17.7584 27.7363 17.8435 30.6043ZM21.3819 24.4447H20.9456V26.2225H21.3819V24.4447ZM17.5095 10.4447C18.5969 11.3822 20.2263 11.3319 21.2524 10.2867C22.2785 9.24157 22.3296 7.58188 21.4075 6.47424C20.9644 7.34228 20.4223 8.11486 19.7712 8.77806C19.1201 9.44126 18.3617 9.99507 17.5095 10.4447ZM19.6366 14.2225C18.1861 14.2225 16.9981 15.3596 16.8805 16.8058C17.7958 16.5107 18.7162 16.3562 19.6366 16.3562C20.557 16.3562 21.4774 16.5107 22.3927 16.8058C22.2751 15.3596 21.0871 14.2225 19.6366 14.2225ZM22.3347 17.1218L22.4472 17.16L22.4421 17.2798C22.3824 18.8215 21.1502 20.0298 19.6366 20.0298C18.123 20.0298 16.8907 18.8214 16.8311 17.2815L16.826 17.1617L16.9385 17.1235C17.8333 16.8232 18.7349 16.6739 19.6366 16.6739C20.5382 16.6721 21.4382 16.8214 22.3347 17.1218ZM22.1217 17.3874C20.47 16.8579 18.7997 16.8596 17.1496 17.3874C17.2604 18.6999 18.3291 19.7103 19.6347 19.7103C20.942 19.7103 22.0126 18.6999 22.1217 17.3874ZM17.1483 10.1461C16.1205 9.01238 16.1529 7.27105 17.2233 6.18078C18.2937 5.09052 20.0032 5.05754 21.1146 6.10439L21.2015 6.18599L21.1486 6.29363C20.7242 7.14954 20.1908 7.90474 19.5533 8.55403C18.9159 9.20331 18.1744 9.74674 17.3325 10.179L17.2268 10.2328L17.1483 10.1461ZM17.2983 9.83878C18.8323 9.02282 20.0152 7.81967 20.8129 6.25718C19.8243 5.4082 18.3653 5.46376 17.4415 6.40475C16.5194 7.34572 16.4648 8.8318 17.2983 9.83878ZM11.1146 10.1738C12.1849 9.08358 13.8945 9.0506 15.0058 10.0975L15.0927 10.1791L15.0399 10.2867C14.6155 11.1426 14.082 11.8978 13.4446 12.5471C12.8071 13.1964 12.0656 13.7398 11.2237 14.1721L11.118 14.2259L11.0379 14.1373C10.0101 13.0054 10.0442 11.2642 11.1146 10.1738ZM11.3344 10.3995C10.4106 11.3405 10.3561 12.8249 11.1895 13.8336C12.7235 13.0176 13.9064 11.8145 14.7041 10.252C13.7172 9.40301 12.2582 9.45855 11.3344 10.3995ZM15.4609 18.304L15.466 18.4238L15.3535 18.462C14.4586 18.7623 13.557 18.9116 12.6553 18.9116C11.7537 18.9116 10.8521 18.7623 9.95722 18.462L9.84473 18.4238L9.84984 18.304C9.9095 16.7623 11.1418 15.554 12.6554 15.554C14.1689 15.5557 15.4012 16.7641 15.4609 18.304ZM15.1404 18.1981C15.0296 16.8856 13.961 15.8752 12.6554 15.8752C11.3497 15.8752 10.2794 16.8873 10.1703 18.1998C11.8202 18.7259 13.4921 18.7259 15.1404 18.1981ZM5.77098 19.0019C5.11988 19.6651 4.36139 20.2189 3.50919 20.6686C4.59662 21.6061 6.22608 21.5557 7.25212 20.5106C8.27821 19.4654 8.32934 17.8057 7.40722 16.6981C6.96578 17.5661 6.42208 18.3387 5.77098 19.0019ZM5.55281 18.7797C4.91537 19.429 4.1739 19.9724 3.33195 20.4047L3.22627 20.4585L3.14616 20.3699C2.11838 19.2362 2.1508 17.4949 3.22116 16.4046C4.29153 15.3144 6.0011 15.2814 7.11241 16.3283L7.19933 16.4099L7.1465 16.5175C6.7238 17.3751 6.19025 18.1304 5.55281 18.7797ZM6.81408 16.4845C5.82552 15.6356 4.3665 15.6911 3.44269 16.6321C2.51888 17.5731 2.46434 19.0574 3.29781 20.0661C4.8335 19.2485 6.01472 18.0453 6.81408 16.4845ZM11.3293 9.5592C10.4771 9.10782 9.71859 8.55573 9.06749 7.89253C8.41639 7.22933 7.87268 6.45675 7.43124 5.58871C6.51083 6.69635 6.56027 8.35608 7.58634 9.4012C8.61073 10.4446 10.2418 10.4967 11.3293 9.5592ZM7.69033 5.4064L7.6375 5.29876L7.72442 5.21716C8.83743 4.17027 10.547 4.20329 11.6174 5.29355C12.6877 6.38381 12.7201 8.12515 11.6924 9.25711L11.6123 9.34565L11.5066 9.29183C10.6663 8.85954 9.92486 8.31614 9.28742 7.66685C8.64828 7.0193 8.11646 6.26404 7.69033 5.4064ZM8.0244 5.37341C8.82547 6.9359 10.0067 8.14079 11.5407 8.95328C12.3741 7.94634 12.3196 6.46021 11.3958 5.51923C10.472 4.57999 9.01301 4.52444 8.0244 5.37341ZM0.874164 38.205V34.6841C0.874164 34.3074 1.17585 34.0001 1.54573 34.0001H5.43867C5.80854 34.0001 6.11024 34.3074 6.11024 34.6841V38.205C6.11024 38.5817 5.80855 38.889 5.43867 38.889H1.54573C1.17586 38.889 0.874164 38.5817 0.874164 38.205ZM1.3105 38.205C1.3105 38.3369 1.41618 38.4445 1.54571 38.4445H5.43866C5.56819 38.4445 5.67387 38.3369 5.67387 38.205V34.6841C5.67387 34.5522 5.56819 34.4445 5.43866 34.4445H1.54571C1.41618 34.4445 1.3105 34.5522 1.3105 34.6841V38.205ZM9.89933 18.7779C10.0169 20.224 11.2049 21.3612 12.6554 21.3612C14.1059 21.3612 15.2939 20.224 15.4115 18.7779C14.4962 19.073 13.5758 19.2275 12.6554 19.2275C11.735 19.2275 10.8146 19.073 9.89933 18.7779ZM2.46984 9.39608L2.41701 9.28844L2.50393 9.20684C3.61694 8.15995 5.3265 8.19297 6.39688 9.28323C7.46726 10.3735 7.49963 12.1148 6.47188 13.2468L6.39177 13.3353L6.28609 13.2815C5.4458 12.8492 4.70438 12.3058 4.06693 11.6565C3.42779 11.009 2.89597 10.2537 2.46984 9.39608ZM2.80391 9.36309C3.60498 10.9256 4.78618 12.1305 6.32017 12.943C7.15366 11.936 7.09911 10.4499 6.17529 9.50891C5.25148 8.56967 3.79252 8.51412 2.80391 9.36309Z" fill="#7FF803"/>
</svg>
