<svg viewBox="0 0 617 979" fill="none" xmlns="http://www.w3.org/2000/svg">

  <defs>
    <linearGradient id="greenShading" x1="0%" y1="0%" x2="100%" y2="0%">
      <stop offset="0%" stop-color="#74c410" />
      <stop offset="20%" stop-color="#fff58a" />
      <stop offset="30%" stop-color="#74c410" />
      <stop offset="80%" stop-color="#74c410" />
      <stop offset="100%" stop-color="#1F4D2B" />
    </linearGradient>

    <linearGradient id="yellowShading" x1="0%" y1="0%" x2="100%" y2="0%">
      <stop offset="0%" stop-color="#ffdf31" />
      <stop offset="20%" stop-color="#fff58a" />
      <stop offset="30%" stop-color="#ffdf31" />
      <stop offset="60%" stop-color="#ffdf31" />
      <stop offset="100%" stop-color="#c9ad0c" />
    </linearGradient>
  </defs>

  <circle cx="308.5" cy="388.5" r="302" fill="#DEECF3" stroke="#0f0f0f" stroke-width="13" />
  <path d="M308.5 5.14625C274.1 2.74625 257.833 30.4796 254 44.6462H361C357.833 32.4796 342.9 7.54625 308.5 5.14625Z" fill="url(#yellowShading)" stroke="#0f0f0f" stroke-width="10" stroke-linecap="round" stroke-linejoin="round" />
  <path d="M105 902L112.5 646H511.5L519 894.5L105 902Z" fill="url(#greenShading)" stroke="#0f0f0f" stroke-width="10" stroke-linecap="round" stroke-linejoin="round" />
  <path d="M524.709 850.027C329.109 940.027 159.542 887.527 99.2088 850.027C71.2088 859.227 79.8755 895.194 87.7088 912.027C291.309 1022.43 476.875 958.027 544.209 912.027C549.009 860.827 533.209 849.36 524.709 850.027Z" fill="url(#greenShading)" stroke="#0f0f0f" stroke-width="10" stroke-linecap="round" stroke-linejoin="round" />
  <path d="M234.569 45C154.169 61.4 136.736 111.167 138.069 134C289.669 155.6 427.236 143 477.069 134C486.669 79.2 418.069 51.8333 382.569 45H234.569Z" fill="url(#greenShading)" stroke="#0f0f0f" stroke-width="10" stroke-linecap="round" stroke-linejoin="round" />
  <path d="M517.219 611C345.719 677.5 173.552 639.5 101.219 611C88.219 623.5 102.552 645 111.219 647.5C354.219 724.5 490.719 656.5 517.219 639C538.419 625 526.052 614.5 517.219 611Z" fill="url(#yellowShading)" stroke="#0f0f0f" stroke-width="10" stroke-linecap="round" stroke-linejoin="round" />
</svg>