<svg width="34" height="34" viewBox="0 0 34 34" fill="none" xmlns="http://www.w3.org/2000/svg">
<path d="M15.3335 25.3333H18.6668V15.3333H15.3335V25.3333ZM17.0002 11.9999C17.4724 11.9999 17.8682 11.8402 18.1877 11.5208C18.5071 11.2013 18.6668 10.8055 18.6668 10.3333C18.6668 9.86103 18.5071 9.4652 18.1877 9.14575C17.8682 8.82631 17.4724 8.66658 17.0002 8.66658C16.5279 8.66658 16.1321 8.82631 15.8127 9.14575C15.4932 9.4652 15.3335 9.86103 15.3335 10.3333C15.3335 10.8055 15.4932 11.2013 15.8127 11.5208C16.1321 11.8402 16.5279 11.9999 17.0002 11.9999ZM17.0002 33.6666C14.6946 33.6666 12.5279 33.2291 10.5002 32.3541C8.47238 31.4791 6.7085 30.2916 5.2085 28.7916C3.7085 27.2916 2.521 25.5277 1.646 23.4999C0.770996 21.4721 0.333496 19.3055 0.333496 16.9999C0.333496 14.6944 0.770996 12.5277 1.646 10.4999C2.521 8.47214 3.7085 6.70825 5.2085 5.20825C6.7085 3.70825 8.47238 2.52075 10.5002 1.64575C12.5279 0.770752 14.6946 0.333252 17.0002 0.333252C19.3057 0.333252 21.4724 0.770752 23.5002 1.64575C25.5279 2.52075 27.2918 3.70825 28.7918 5.20825C30.2918 6.70825 31.4793 8.47214 32.3543 10.4999C33.2293 12.5277 33.6668 14.6944 33.6668 16.9999C33.6668 19.3055 33.2293 21.4721 32.3543 23.4999C31.4793 25.5277 30.2918 27.2916 28.7918 28.7916C27.2918 30.2916 25.5279 31.4791 23.5002 32.3541C21.4724 33.2291 19.3057 33.6666 17.0002 33.6666ZM17.0002 30.3333C20.7224 30.3333 23.8752 29.0416 26.4585 26.4583C29.0418 23.8749 30.3335 20.7221 30.3335 16.9999C30.3335 13.2777 29.0418 10.1249 26.4585 7.54158C23.8752 4.95825 20.7224 3.66658 17.0002 3.66658C13.2779 3.66658 10.1252 4.95825 7.54183 7.54158C4.9585 10.1249 3.66683 13.2777 3.66683 16.9999C3.66683 20.7221 4.9585 23.8749 7.54183 26.4583C10.1252 29.0416 13.2779 30.3333 17.0002 30.3333Z" fill="white"/>
</svg>
