<svg width="20" height="20" viewBox="0 0 20 20" fill="none" xmlns="http://www.w3.org/2000/svg">
<path d="M18.3333 7.50004V5.83337H16.6667V7.50004H15V9.16671H16.6667V10.8334H18.3333V9.16671H20V7.50004H18.3333Z" fill="white"/>
<path d="M6.66683 10C8.5085 10 10.0002 8.50837 10.0002 6.66671C10.0002 4.82504 8.5085 3.33337 6.66683 3.33337C4.82516 3.33337 3.3335 4.82504 3.3335 6.66671C3.3335 8.50837 4.82516 10 6.66683 10Z" fill="white"/>
<path d="M6.66667 10.8334C4.44167 10.8334 0 11.95 0 14.1667V16.6667H13.3333V14.1667C13.3333 11.95 8.89167 10.8334 6.66667 10.8334Z" fill="white"/>
<path d="M10.4248 3.375C11.1915 4.25833 11.6665 5.40833 11.6665 6.66667C11.6665 7.925 11.1915 9.075 10.4248 9.95833C12.0581 9.75 13.3331 8.36667 13.3331 6.66667C13.3331 4.96667 12.0581 3.58333 10.4248 3.375Z" fill="white"/>
<path d="M13.7749 11.525C14.5166 12.2167 14.9999 13.0834 14.9999 14.1667V16.6667H16.6666V14.1667C16.6666 12.9584 15.3416 12.075 13.7749 11.525Z" fill="white"/>
</svg>
