<svg width="40" height="40" viewBox="0 0 40 40" fill="none" xmlns="http://www.w3.org/2000/svg">
<path d="M19.9998 36.6666C19.0832 36.6666 18.2984 36.3403 17.6457 35.6875C16.9929 35.0347 16.6665 34.25 16.6665 33.3333H23.3332C23.3332 34.25 23.0068 35.0347 22.354 35.6875C21.7012 36.3403 20.9165 36.6666 19.9998 36.6666ZM6.6665 31.6666V28.8887H9.99984V16.5554C9.99984 14.2315 10.6897 12.1551 12.0694 10.3262C13.4489 8.49762 15.259 7.33331 17.4998 6.83331V5.83331C17.4998 5.13887 17.7429 4.54859 18.229 4.06248C18.7151 3.57637 19.3054 3.33331 19.9998 3.33331C20.6943 3.33331 21.2846 3.57637 21.7707 4.06248C22.2568 4.54859 22.4998 5.13887 22.4998 5.83331V6.83331C22.9998 6.96304 23.4886 7.11637 23.9661 7.29331C24.4436 7.47053 24.8947 7.69679 25.3194 7.97206C24.9583 8.3054 24.625 8.65956 24.3194 9.03456C24.0139 9.40956 23.7361 9.8147 23.4861 10.25C22.9766 9.96304 22.428 9.73845 21.8403 9.57623C21.2522 9.41429 20.6387 9.33331 19.9998 9.33331C17.9998 9.33331 16.2961 10.0371 14.8886 11.4446C13.4814 12.8518 12.7778 14.5554 12.7778 16.5554V28.8887H27.2219V23.3612C27.648 23.5926 28.0911 23.7911 28.5511 23.9566C29.0111 24.1225 29.494 24.2526 29.9998 24.3471V28.8887H33.3332V31.6666H6.6665Z" fill="white"/>
<path fill-rule="evenodd" clip-rule="evenodd" d="M27.2779 21.3333V16.0554H22V13.2779H27.2779V8H30.0554V13.2779H35.3333V16.0554H30.0554V21.3333H27.2779Z" fill="#74C410"/>
</svg>
