<svg width="20" height="20" viewBox="0 0 20 20" fill="none" xmlns="http://www.w3.org/2000/svg">
<g clip-path="url(#clip0_996_2533)">
<path d="M8.33333 9.99998C10.1743 9.99998 11.6667 8.5076 11.6667 6.66665C11.6667 4.8257 10.1743 3.33331 8.33333 3.33331C6.49238 3.33331 5 4.8257 5 6.66665C5 8.5076 6.49238 9.99998 8.33333 9.99998Z" fill="white"/>
<path d="M8.62484 11.675C6.34984 11.5917 1.6665 12.725 1.6665 15V16.6667H9.6165C7.55817 14.3667 8.5915 11.7583 8.62484 11.675Z" fill="white"/>
<path d="M16.1917 15.0167C16.4917 14.525 16.6667 13.95 16.6667 13.3333C16.6667 11.4917 15.175 10 13.3333 10C11.4917 10 10 11.4917 10 13.3333C10 15.175 11.4917 16.6667 13.3333 16.6667C13.95 16.6667 14.525 16.4833 15.0167 16.1917L17.1583 18.3333L18.3333 17.1583L16.1917 15.0167ZM13.3333 15C12.4167 15 11.6667 14.25 11.6667 13.3333C11.6667 12.4167 12.4167 11.6667 13.3333 11.6667C14.25 11.6667 15 12.4167 15 13.3333C15 14.25 14.25 15 13.3333 15Z" fill="white"/>
</g>
<defs>
<clipPath id="clip0_996_2533">
<rect width="20" height="20" fill="white"/>
</clipPath>
</defs>
</svg>
