<svg width="24" height="24" viewBox="0 0 24 24" fill="none" xmlns="http://www.w3.org/2000/svg">
<g clip-path="url(#clip0_156_7379)">
<path fill-rule="evenodd" clip-rule="evenodd" d="M7 6C7 3.23858 9.23858 1 12 1C14.7614 1 17 3.23858 17 6C17 8.76142 14.7614 11 12 11C9.23858 11 7 8.76142 7 6ZM12 3C10.3431 3 9 4.34315 9 6C9 7.65685 10.3431 9 12 9C13.6569 9 15 7.65685 15 6C15 4.34315 13.6569 3 12 3Z" fill="#74C410"/>
<path d="M4.06189 21C4.55399 17.0537 7.92038 14 12 14C12.8571 14 13.6809 14.1344 14.4525 14.3827L15.4045 14.6889L16.0169 12.785L15.065 12.4787C14.0979 12.1676 13.0675 12 12 12C6.47715 12 2 16.4772 2 22V23H13.6736V21H4.06189Z" fill="#74C410"/>
<path d="M18.8413 23.8006L14.7247 19.5874L15.4273 18.2932L18.5148 21.4531L23.0387 13.1204L24.0679 14.1737L18.8413 23.8006Z" fill="#74C410"/>
</g>
<defs>
<clipPath id="clip0_156_7379">
<rect width="24" height="24" fill="white"/>
</clipPath>
</defs>
</svg>
