<svg width="170" height="170" viewBox="0 0 170 170" fill="none" xmlns="http://www.w3.org/2000/svg">
<path d="M85 146.625C63.75 146.625 44.625 136 34 119C34 102 68 92.4375 85 92.4375C102 92.4375 136 102 136 119C125.375 134.937 106.25 146.625 85 146.625ZM85 25.5C98.8125 25.5 110.5 37.1875 110.5 51C110.5 64.8125 98.8125 76.5 85 76.5C71.1875 76.5 59.5 64.8125 59.5 51C59.5 37.1875 71.1875 25.5 85 25.5ZM85 0C38.25 0 0 38.25 0 85C0 131.75 38.25 170 85 170C131.75 170 170 131.75 170 85C170 38.25 131.75 0 85 0Z" fill="#74C410"/>
</svg>
