<svg width="31" height="35" viewBox="0 0 31 35" fill="none" xmlns="http://www.w3.org/2000/svg">
<g clip-path="url(#clip0_95_1398)">
<path d="M25 19C27.2091 19 29 17.2091 29 15C29 12.7909 27.2091 11 25 11C22.7909 11 21 12.7909 21 15C21 17.2091 22.7909 19 25 19Z" fill="#CE2E2E"/>
<path d="M23 33H20.9V27.5833C20.9 26.1467 20.3469 24.769 19.3623 23.7532C18.3777 22.7373 17.0424 22.1667 15.65 22.1667H9.35C7.95761 22.1667 6.62226 22.7373 5.63769 23.7532C4.65312 24.769 4.1 26.1467 4.1 27.5833V33H2V27.5833C2 25.5721 2.77437 23.6433 4.15277 22.2211C5.53116 20.799 7.40066 20 9.35 20H15.65C17.5993 20 19.4688 20.799 20.8472 22.2211C22.2256 23.6433 23 25.5721 23 27.5833V33Z" fill="#7FF803"/>
<path d="M12.5 6.85714C13.4183 6.85714 14.3159 7.12944 15.0794 7.6396C15.8429 8.14977 16.438 8.87488 16.7894 9.72325C17.1408 10.5716 17.2328 11.5051 17.0536 12.4058C16.8745 13.3064 16.4323 14.1337 15.783 14.783C15.1337 15.4323 14.3064 15.8745 13.4058 16.0536C12.5052 16.2328 11.5716 16.1408 10.7233 15.7894C9.87489 15.438 9.14977 14.8429 8.63961 14.0794C8.12944 13.3159 7.85715 12.4183 7.85715 11.5C7.85715 10.2686 8.3463 9.08771 9.21701 8.217C10.0877 7.3463 11.2686 6.85714 12.5 6.85714ZM12.5 5C11.2144 5 9.95772 5.38122 8.8888 6.09545C7.81988 6.80968 6.98676 7.82484 6.49479 9.01256C6.00282 10.2003 5.87409 11.5072 6.1249 12.7681C6.3757 14.029 6.99477 15.1872 7.90381 16.0962C8.81285 17.0052 9.97104 17.6243 11.2319 17.8751C12.4928 18.1259 13.7997 17.9972 14.9874 17.5052C16.1752 17.0132 17.1903 16.1801 17.9046 15.1112C18.6188 14.0423 19 12.7856 19 11.5C19 9.77609 18.3152 8.12279 17.0962 6.90381C15.8772 5.68482 14.2239 5 12.5 5Z" fill="#7FF803"/>
</g>
<defs>
<clipPath id="clip0_95_1398">
<rect width="31" height="35" fill="white"/>
</clipPath>
</defs>
</svg>
